HIERARCHY
ROOT Hips
{
  OFFSET 53.2159 58.2879 -7.51
  CHANNELS 6 Xposition Yposition Zposition Zrotation Xrotation Yrotation
  JOINT spine
  {
    OFFSET 0 6.84637 0.3937
    CHANNELS 3 Zrotation Xrotation Yrotation
    JOINT spine1
    {
      OFFSET 0 9.49621 0
      CHANNELS 3 Zrotation Xrotation Yrotation
      JOINT spine2
      {
        OFFSET 0 9.09909 0
        CHANNELS 3 Zrotation Xrotation Yrotation
        JOINT Neck
        {
          OFFSET 0 23.3612 1.11378
          CHANNELS 3 Zrotation Xrotation Yrotation
          JOINT Head
          {
            OFFSET 0 7.05802 0
            CHANNELS 3 Zrotation Xrotation Yrotation
            End Site
            {
              OFFSET 0 17.0844 -5.63419
            }
          }
        }
        JOINT RightShoulder
        {
          OFFSET -3.83136 9.82631 -0.533491
          CHANNELS 3 Zrotation Xrotation Yrotation
          JOINT RightArm
          {
            OFFSET 0 12.8881 0
            CHANNELS 3 Zrotation Xrotation Yrotation
            JOINT RightArmRoll
            {
              OFFSET 0 6.50617 0
              CHANNELS 3 Zrotation Xrotation Yrotation
              JOINT RightForeArm
              {
                OFFSET 0 18.9501 0
                CHANNELS 3 Zrotation Xrotation Yrotation
                JOINT RightForeArmRoll
                {
                  OFFSET 0 7.30093 0
                  CHANNELS 3 Zrotation Xrotation Yrotation
                  JOINT RightHand
                  {
                    OFFSET 0 14.6514 0
                    CHANNELS 3 Zrotation Xrotation Yrotation
                    End Site
                    {
                      OFFSET 0 0 0
                    }
                  }
                }
              }
            }
          }
        }
        JOINT LeftShoulder
        {
          OFFSET 3.83136 9.82631 -0.533491
          CHANNELS 3 Zrotation Xrotation Yrotation
          JOINT LeftArm
          {
            OFFSET 0 12.8881 0
            CHANNELS 3 Zrotation Xrotation Yrotation
            JOINT LeftArmRoll
            {
              OFFSET 0 6.50617 0
              CHANNELS 3 Zrotation Xrotation Yrotation
              JOINT LeftForeArm
              {
                OFFSET 0 18.9501 0
                CHANNELS 3 Zrotation Xrotation Yrotation
                JOINT LeftForeArmRoll
                {
                  OFFSET 0 7.30092 0
                  CHANNELS 3 Zrotation Xrotation Yrotation
                  JOINT LeftHand
                  {
                    OFFSET 0 14.6514 0
                    CHANNELS 3 Zrotation Xrotation Yrotation
                    End Site
                    {
                      OFFSET 0 0 0
                    }
                  }
                }
              }
            }
          }
        }
      }
    }
  }
  JOINT RightUpLeg
  {
    OFFSET -6.06837 -1.11278 -0.933477
    CHANNELS 3 Zrotation Xrotation Yrotation
    JOINT RightUpLegRoll
    {
      OFFSET 0 17.1796 0
      CHANNELS 3 Zrotation Xrotation Yrotation
      JOINT RightLeg
      {
        OFFSET 0 -21.2743 0
        CHANNELS 3 Zrotation Xrotation Yrotation
        JOINT RightLegRoll
        {
          OFFSET 0 21.3439 0
          CHANNELS 3 Zrotation Xrotation Yrotation
          JOINT RightFoot
          {
            OFFSET 0 17.7652 0
            CHANNELS 3 Zrotation Xrotation Yrotation
            JOINT RightToeBase
            {
              OFFSET 0 14.8508 0
              CHANNELS 3 Zrotation Xrotation Yrotation
              End Site
              {
                OFFSET 0.0062947 7.19214 -0.829004
              }
            }
          }
        }
      }
    }
  }
  JOINT LeftUpLeg
  {
    OFFSET 6.06837 -1.11278 -0.933477
    CHANNELS 3 Zrotation Xrotation Yrotation
    JOINT LeftUpLegRoll
    {
      OFFSET 0 17.1797 0
      CHANNELS 3 Zrotation Xrotation Yrotation
      JOINT LeftLeg
      {
        OFFSET 0 21.2742 0
        CHANNELS 3 Zrotation Xrotation Yrotation
        JOINT LeftLegRoll
        {
          OFFSET 0 21.5412 0
          CHANNELS 3 Zrotation Xrotation Yrotation
          JOINT LeftFoot
          {
            OFFSET 0 17.5679 0
            CHANNELS 3 Zrotation Xrotation Yrotation
            JOINT LeftToeBase
            {
              OFFSET 0 14.8508 0
              CHANNELS 3 Zrotation Xrotation Yrotation
              End Site
              {
                OFFSET -0.0282102 7.19213 -0.829005
              }
            }
          }
        }
      }
    }
  }
}
MOTION
Frames: 4
Frame Time: 0.00208333
52.8831 91.3206 38.4497 -2.43435 -2.03166 -3.97501 0.688015 -2.42581 0.823829 1.40053 -0.839268 1.58755 1.38164 0.805262 1.56427 -6.21722 45.5764 3.76959 -2.43158 -1.71464 -0.0287442 70.8939 8.57119 2.71542 98.442 9.00381 1.71391 1.99674e-007 1.79674e-006 -4.36722e-006 18.4318 16.9594 -3.24677 -1.31651e-005 -3.13402e-006 -3 8.02916 -4.95144 0.697714 -68.6075 5.19739 -1.49044 -103.604 14.7116 -13.9548 -3.3791e-005 3.99281e-006 1.76251e-006 -18.5483 0.138808 1.31984 -2.65176e-005 -3.63329e-006 3.12876 -8.02924 -4.95145 -0.697691 -179.636 2.54207 -1.76998 180 7.01553e-015 178.949 178.623 6.62629 179.816 1.11796e-006 1.71788e-006 0.0245922 -17.9236 66.8328 18.5992 8.13649 25.2327 -3.48773 -169.674 1.10571 -4.01948 4.54188e-006 -4.6773e-006 -1.10319 -2.71277 -11.6518 0.052942 6.72989e-006 -5.45177e-006 -0.213543 20.5439 69.9867 -21.3649 -8.13649 25.2327 3.48774 
52.9471 91.3223 38.3758 -2.41791 -2.07584 -3.94899 0.686915 -2.40863 0.820694 1.39804 -0.804976 1.58116 1.37925 0.839556 1.55793 -6.31871 45.7009 3.84201 -2.43459 -1.64163 -0.0201354 70.8315 8.57182 2.72833 98.5294 8.97208 1.79323 1.99674e-007 1.79674e-006 -4.36722e-006 18.384 16.8633 -3.22727 -1.31651e-005 -3.13402e-006 -3 8.02916 -4.95144 0.697714 -68.6227 5.19112 -1.48474 -103.617 14.5864 -13.9625 -3.3791e-005 3.99281e-006 1.76251e-006 -18.5462 0.138828 1.26435 -2.65176e-005 -3.63329e-006 3.12353 -8.02924 -4.95145 -0.697691 -179.658 2.50332 -1.74803 180 7.01553e-015 178.948 178.614 6.62991 179.817 1.11796e-006 1.71788e-006 0.0245922 -17.9215 66.83 18.5976 8.13649 25.2327 -3.48773 -169.696 1.06212 -4.00174 4.54188e-006 -4.6773e-006 -1.10393 -2.70306 -11.633 0.0544142 6.72989e-006 -5.45177e-006 -0.213646 20.537 69.9793 -21.3573 -8.13649 25.2327 3.48774 
52.926 91.3276 38.3851 -2.40209 -2.12028 -3.92425 0.685959 -2.39148 0.817724 1.39588 -0.770732 1.57508 1.37717 0.873804 1.55189 -6.42019 45.8239 3.91453 -2.43821 -1.56713 -0.0113214 70.7687 8.57181 2.74101 98.6172 8.93989 1.87252 1.99674e-007 1.79674e-006 -4.36722e-006 18.3367 16.7667 -3.20769 -1.31651e-005 -3.13402e-006 -3 8.02916 -4.95144 0.697714 -68.6384 5.18533 -1.47921 -103.629 14.4586 -13.9695 -3.3791e-005 3.99281e-006 1.76251e-006 -18.5456 0.138855 1.20786 -2.65176e-005 -3.63329e-006 3.1182 -8.02924 -4.95145 -0.697691 -179.678 2.4644 -1.72663 180 7.01552e-015 178.947 178.605 6.63362 179.818 1.11796e-006 1.71788e-006 0.0245922 -17.9194 66.8273 18.596 8.13649 25.2327 -3.48773 -169.717 1.01795 -3.98465 4.54188e-006 -4.6773e-006 -1.10463 -2.6936 -11.6146 0.0558694 6.72989e-006 -5.45177e-006 -0.213764 20.5304 69.9722 -21.3499 -8.13649 25.2327 3.48774 
52.9011 91.3272 38.3971 -2.38668 -2.1649 -3.90041 0.685103 -2.37435 0.81487 1.39393 -0.73652 1.56922 1.37531 0.908018 1.54608 -6.52178 45.9459 3.98723 -2.44227 -1.49159 -0.00236397 70.7055 8.57134 2.75353 98.7052 8.90736 1.95177 1.99674e-007 1.79674e-006 -4.36722e-006 18.2897 16.6696 -3.18807 -1.31651e-005 -3.13402e-006 -3 8.02916 -4.95144 0.697714 -68.6543 5.17988 -1.4738 -103.641 14.329 -13.976 -3.3791e-005 3.99281e-006 1.76251e-006 -18.5461 0.138887 1.15067 -2.65176e-005 -3.63329e-006 3.1128 -8.02924 -4.95145 -0.697691 -179.698 2.42538 -1.70562 180 7.01552e-015 178.946 178.596 6.63739 179.818 1.11796e-006 1.71788e-006 0.0245922 -17.9173 66.8245 18.5944 8.13649 25.2327 -3.48773 -169.737 0.973378 -3.96801 4.54188e-006 -4.6773e-006 -1.10529 -2.68432 -11.5964 0.0573125 6.72989e-006 -5.45177e-006 -0.213893 20.524 69.9653 -21.3428 -8.13649 25.2327 3.48774 
